<svg xmlns="http://www.w3.org/2000/svg" version="1.1" xmlns:xlink="http://www.w3.org/1999/xlink" xmlns:svgjs="http://svgjs.dev/svgjs" width="1000" height="1000" viewBox="0 0 1000 1000"><rect width="1000" height="1000" fill="#000000"></rect><g transform="matrix(0.7,0,0,0.7,149.57575757575756,282.1265587044535)"><svg viewBox="0 0 396 247" data-background-color="#ffa458" preserveAspectRatio="xMidYMid meet" height="623" width="1000" xmlns="http://www.w3.org/2000/svg" xmlns:xlink="http://www.w3.org/1999/xlink"><g id="tight-bounds" transform="matrix(1,0,0,1,0.2400000000000091,-0.09999999999999432)"><svg viewBox="0 0 395.52 247.2" height="247.2" width="395.52"><g><svg></svg></g><g><svg viewBox="0 0 395.52 247.2" height="247.2" width="395.52"><g><g><path xmlns="http://www.w3.org/2000/svg" d="M50.384 0.726c1.694 0 5.639-0.073 11.833-0.218 6.147-0.097 13.213-0.145 21.199-0.145 7.986 0 16.286-0.073 24.902-0.218 8.567-0.097 16.238-0.145 23.014-0.145 20.57 0 38.308 3.073 53.215 9.22 14.859 6.195 27.128 14.859 36.808 25.991 5.528 6.357 10.227 13.401 14.098 21.131l-69.909 0c-9.081-9.49-21.332-14.235-36.753-14.235-4.114 0-7.26 0.048-9.438 0.146-2.178 0.145-5.203 0.218-9.075 0.217l0 13.872-59.894 0zM220.847 214.676c-9.825 10.551-22.24 18.61-37.244 24.175-15.004 5.566-32.791 8.349-53.36 8.349-7.018 0-13.431-0.048-19.239-0.145-5.808-0.145-11.737-0.218-17.787-0.218-6.05 0-12.463-0.048-19.239-0.145-6.776-0.145-14.641-0.218-23.594-0.218v-55.616l59.894 0v13.872c3.146 0.242 5.929 0.363 8.349 0.363 2.42 0 5.808 0 10.164 0 10.648 0 19.529-1.815 26.644-5.445 4.537-2.299 8.51-5.229 11.921-8.79h69.598c-4.266 8.926-9.636 16.865-16.107 23.818zM285.242 246.474l0-55.616 59.894 0v55.616zM285.242 0.726h59.894v55.616l-59.894 0z" fill="#ffffff" fill-rule="nonzero" stroke="none" stroke-width="1" stroke-linecap="butt" stroke-linejoin="miter" stroke-miterlimit="10" stroke-dasharray="" stroke-dashoffset="0" font-family="none" font-weight="none" font-size="none" text-anchor="none" style="mix-blend-mode: normal" data-fill-palette-color="tertiary"></path></g></g><g transform="matrix(1,0,0,1,0,65.6370509250837)"><svg viewBox="0 0 395.52 115.92589814983259" height="115.92589814983259" width="395.52"><g><svg viewBox="0 0 397.4975999999999 116.50552764058173" height="115.92589814983259" width="395.52"><g><rect width="397.4975999999999" height="3.568410435281285" x="0" y="64.02631634863305" fill="#ffffff" opacity="1" stroke-width="0" stroke="transparent" fill-opacity="1" class="rect-o-0" data-fill-palette-color="primary" rx="1%" id="o-0" data-palette-color="#ea3c12"></rect></g><g transform="matrix(1,0,0,1,0.9887999999999693,76.9361153579491)"><svg viewBox="0 0 395.52 39.56941228263261" height="39.56941228263261" width="395.52"><g id="textblocktransform"><svg viewBox="0 0 395.52 39.56941228263261" height="39.56941228263261" width="395.52" id="textblock"><g><svg viewBox="0 0 395.52 39.56941228263261" height="39.56941228263261" width="395.52"><g transform="matrix(1,0,0,1,0,0)"><svg width="395.52" viewBox="3.0999999046325684 -34.29999923706055 454.2599792480469 45.44999694824219" height="39.56941228263261" data-palette-color="#ea3c12"><path d="M3.1 0L3.1-33.85Q3.45-33.85 4.73-33.88 6-33.9 7.65-33.9 9.3-33.9 11.08-33.93 12.85-33.95 14.25-33.95L14.25-33.95Q18.5-33.95 21.58-32.68 24.65-31.4 26.65-29.1 28.65-26.8 29.6-23.63 30.55-20.45 30.55-16.65L30.55-16.65Q30.55-12.75 29.58-9.65 28.6-6.55 26.58-4.38 24.55-2.2 21.45-1.05 18.35 0.1 14.1 0.1L14.1 0.1Q12.65 0.1 11.45 0.08 10.25 0.05 9 0.05 7.75 0.05 6.35 0.03 4.95 0 3.1 0L3.1 0ZM13.9-28.15Q13.05-28.15 12.6-28.13 12.15-28.1 11.35-28.1L11.35-28.1 11.35-5.75Q12-5.7 12.5-5.7 13-5.7 13.9-5.7L13.9-5.7Q16.1-5.7 17.57-6.45 19.05-7.2 19.95-8.6 20.85-10 21.25-12.03 21.65-14.05 21.65-16.55L21.65-16.55Q21.65-28.15 13.9-28.15L13.9-28.15ZM35.45 0L35.45-33.85 57-33.85 57-27.8 43.7-27.8 43.7-20.55 54.75-20.55 53.8-14.6 43.7-14.6 43.7-6.05 57.7-6.05 57.7 0 35.45 0ZM71.9-34.3L71.9-34.3Q73.7-34.3 75.37-34 77.05-33.7 78.5-33.25 79.95-32.8 81.12-32.23 82.3-31.65 83.15-31.05L83.15-31.05 80.25-25.55Q79.65-25.85 78.8-26.33 77.95-26.8 76.97-27.25 76-27.7 74.97-28 73.95-28.3 73-28.3L73-28.3Q71.25-28.3 70.4-27.58 69.55-26.85 69.55-25.75L69.55-25.75Q69.6-24.9 69.95-24.25 70.3-23.6 71-22.98 71.7-22.35 72.8-21.75 73.9-21.15 75.5-20.5L75.5-20.5Q77.5-19.65 79-18.75 80.5-17.85 81.47-16.7 82.45-15.55 82.95-14.1 83.45-12.65 83.45-10.75L83.45-10.75Q83.45-8.45 82.62-6.43 81.8-4.4 80.25-2.9 78.7-1.4 76.5-0.55 74.3 0.3 71.55 0.3L71.55 0.3Q69.6 0.3 67.82-0.05 66.05-0.4 64.55-0.95 63.05-1.5 61.8-2.13 60.55-2.75 59.65-3.3L59.65-3.3 62.35-9.2Q62.7-8.95 63.65-8.38 64.6-7.8 65.8-7.23 67-6.65 68.25-6.2 69.5-5.75 70.5-5.75L70.5-5.75Q72.6-5.75 73.57-6.73 74.55-7.7 74.55-9.5L74.55-9.5Q74.55-11.3 73.32-12.23 72.1-13.15 69.85-14.05L69.85-14.05Q67.65-14.95 65.95-15.95 64.25-16.95 63.07-18.2 61.9-19.45 61.27-21 60.65-22.55 60.65-24.6L60.65-24.6Q60.65-26.85 61.57-28.63 62.5-30.4 64.05-31.68 65.6-32.95 67.62-33.63 69.65-34.3 71.9-34.3ZM87.94 0L87.94-33.85 96.19-33.85 96.19 0 87.94 0ZM117.89 11.15L114.89 5.95Q116.49 5.05 117.57 4.15 118.64 3.25 119.32 2.15 119.99 1.05 120.29-0.28 120.59-1.6 120.59-3.25L120.59-3.25 120.59-3.6Q119.59-1.7 117.69-0.68 115.79 0.35 113.19 0.35L113.19 0.35Q110.24 0.35 107.97-0.8 105.69-1.95 104.17-4.13 102.64-6.3 101.84-9.43 101.04-12.55 101.04-16.5L101.04-16.5Q101.04-20.35 101.97-23.63 102.89-26.9 104.79-29.28 106.69-31.65 109.62-32.98 112.54-34.3 116.54-34.3L116.54-34.3Q119.49-34.3 122.22-33.18 124.94-32.05 126.74-29.85L126.74-29.85 122.89-25.15Q121.44-26.55 119.79-27.5 118.14-28.45 116.54-28.45L116.54-28.45Q112.99-28.45 111.47-25.4 109.94-22.35 109.94-17L109.94-17Q109.94-14.4 110.24-12.28 110.54-10.15 111.17-8.65 111.79-7.15 112.72-6.35 113.64-5.55 114.94-5.55L114.94-5.55Q115.94-5.55 116.82-6.3 117.69-7.05 118.37-8.22 119.04-9.4 119.42-10.85 119.79-12.3 119.79-13.75L119.79-13.75 119.79-17.5 127.69-17.5 127.69-1.55Q127.69 1.5 126.84 3.58 125.99 5.65 124.62 7.08 123.24 8.5 121.47 9.45 119.69 10.4 117.89 11.15L117.89 11.15ZM153.09-20.9L152.94-33.85 161.19-33.85 161.19 0 154.14 0 144.49-14.6Q144.19-15.05 143.66-15.9 143.14-16.75 142.56-17.68 141.99-18.6 141.46-19.48 140.94-20.35 140.59-20.9L140.59-20.9Q140.64-20.15 140.71-19.07 140.79-18 140.86-16.9 140.94-15.8 140.99-14.75 141.04-13.7 141.04-13L141.04-13 141.19 0 132.94 0 132.94-33.85 139.69-33.85 149.44-19.35Q149.89-18.65 150.44-17.78 150.99-16.9 151.56-16 152.14-15.1 152.64-14.28 153.14-13.45 153.49-12.85L153.49-12.85Q153.44-13.65 153.39-14.7 153.34-15.75 153.26-16.88 153.19-18 153.14-19.05 153.09-20.1 153.09-20.9L153.09-20.9ZM180.13 0L180.13-33.85 188.38-33.85 188.38 0 180.13 0ZM214.73-20.9L214.58-33.85 222.83-33.85 222.83 0 215.78 0 206.13-14.6Q205.83-15.05 205.31-15.9 204.78-16.75 204.21-17.68 203.63-18.6 203.11-19.48 202.58-20.35 202.23-20.9L202.23-20.9Q202.28-20.15 202.36-19.07 202.43-18 202.51-16.9 202.58-15.8 202.63-14.75 202.68-13.7 202.68-13L202.68-13 202.83 0 194.58 0 194.58-33.85 201.33-33.85 211.08-19.35Q211.53-18.65 212.08-17.78 212.63-16.9 213.21-16 213.78-15.1 214.28-14.28 214.78-13.45 215.13-12.85L215.13-12.85Q215.08-13.65 215.03-14.7 214.98-15.75 214.91-16.88 214.83-18 214.78-19.05 214.73-20.1 214.73-20.9L214.73-20.9ZM249.18-20.9L249.03-33.85 257.28-33.85 257.28 0 250.23 0 240.58-14.6Q240.28-15.05 239.75-15.9 239.23-16.75 238.65-17.68 238.08-18.6 237.55-19.48 237.03-20.35 236.68-20.9L236.68-20.9Q236.73-20.15 236.8-19.07 236.88-18 236.95-16.9 237.03-15.8 237.08-14.75 237.13-13.7 237.13-13L237.13-13 237.28 0 229.03 0 229.03-33.85 235.78-33.85 245.53-19.35Q245.98-18.65 246.53-17.78 247.08-16.9 247.65-16 248.23-15.1 248.73-14.28 249.23-13.45 249.58-12.85L249.58-12.85Q249.53-13.65 249.48-14.7 249.43-15.75 249.35-16.88 249.28-18 249.23-19.05 249.18-20.1 249.18-20.9L249.18-20.9ZM278.02-34.3Q281.98-34.3 284.82-33.1 287.68-31.9 289.52-29.7 291.38-27.5 292.25-24.33 293.13-21.15 293.13-17.2L293.13-17.2Q293.13-13.3 292.15-10.08 291.18-6.85 289.23-4.55 287.27-2.25 284.32-0.98 281.38 0.3 277.38 0.3L277.38 0.3Q273.43 0.3 270.55-0.83 267.68-1.95 265.82-4.13 263.98-6.3 263.1-9.4 262.23-12.5 262.23-16.5L262.23-16.5Q262.23-20.4 263.2-23.68 264.18-26.95 266.13-29.33 268.07-31.7 271.05-33 274.02-34.3 278.02-34.3L278.02-34.3ZM277.32-28.45Q274.07-28.45 272.6-25.43 271.13-22.4 271.13-17.05L271.13-17.05Q271.13-14.5 271.45-12.4 271.77-10.3 272.55-8.78 273.32-7.25 274.68-6.4 276.02-5.55 278.07-5.55L278.07-5.55Q281.32-5.55 282.77-8.45 284.23-11.35 284.23-16.7L284.23-16.7Q284.23-19.25 283.9-21.4 283.57-23.55 282.8-25.13 282.02-26.7 280.68-27.58 279.32-28.45 277.32-28.45L277.32-28.45ZM325.72-33.85L313.07 0 306.07 0 293.42-33.85 302.12-33.85 306.62-20.35Q307.62-17.3 308.37-14.63 309.12-11.95 309.62-10.05L309.62-10.05Q310.12-11.95 310.87-14.55 311.62-17.15 312.72-20.3L312.72-20.3 317.32-33.85 325.72-33.85ZM322.07 0L334.92-33.85 342.27-33.85 354.67 0 346.32 0 343.82-8.15 332.87-8.15 330.27 0 322.07 0ZM334.77-14.25L341.97-14.25Q341.47-15.7 340.94-17.28 340.42-18.85 339.94-20.35 339.47-21.85 339.07-23.18 338.67-24.5 338.37-25.4L338.37-25.4Q338.07-24.45 337.67-23.13 337.27-21.8 336.8-20.3 336.32-18.8 335.8-17.25 335.27-15.7 334.77-14.25L334.77-14.25ZM351.67-33.85L376.82-33.85 375.77-27.8 367.97-27.8 367.97 0 359.72 0 359.72-27.8 351.67-27.8 351.67-33.85ZM380.02 0L380.02-33.85 388.27-33.85 388.27 0 380.02 0ZM409.01-34.3Q412.96-34.3 415.81-33.1 418.66-31.9 420.51-29.7 422.36-27.5 423.24-24.33 424.11-21.15 424.11-17.2L424.11-17.2Q424.11-13.3 423.14-10.08 422.16-6.85 420.21-4.55 418.26-2.25 415.31-0.98 412.36 0.3 408.36 0.3L408.36 0.3Q404.41 0.3 401.54-0.83 398.66-1.95 396.81-4.13 394.96-6.3 394.09-9.4 393.21-12.5 393.21-16.5L393.21-16.5Q393.21-20.4 394.19-23.68 395.16-26.95 397.11-29.33 399.06-31.7 402.04-33 405.01-34.3 409.01-34.3L409.01-34.3ZM408.31-28.45Q405.06-28.45 403.59-25.43 402.11-22.4 402.11-17.05L402.11-17.05Q402.11-14.5 402.44-12.4 402.76-10.3 403.54-8.78 404.31-7.25 405.66-6.4 407.01-5.55 409.06-5.55L409.06-5.55Q412.31-5.55 413.76-8.45 415.21-11.35 415.21-16.7L415.21-16.7Q415.21-19.25 414.89-21.4 414.56-23.55 413.79-25.13 413.01-26.7 411.66-27.58 410.31-28.45 408.31-28.45L408.31-28.45ZM449.26-20.9L449.11-33.85 457.36-33.85 457.36 0 450.31 0 440.66-14.6Q440.36-15.05 439.83-15.9 439.31-16.75 438.74-17.68 438.16-18.6 437.63-19.48 437.11-20.35 436.76-20.9L436.76-20.9Q436.81-20.15 436.88-19.07 436.96-18 437.03-16.9 437.11-15.8 437.16-14.75 437.21-13.7 437.21-13L437.21-13 437.36 0 429.11 0 429.11-33.85 435.86-33.85 445.61-19.35Q446.06-18.65 446.61-17.78 447.16-16.9 447.74-16 448.31-15.1 448.81-14.28 449.31-13.45 449.66-12.85L449.66-12.85Q449.61-13.65 449.56-14.7 449.51-15.75 449.44-16.88 449.36-18 449.31-19.05 449.26-20.1 449.26-20.9L449.26-20.9Z" opacity="1" transform="matrix(1,0,0,1,0,0)" fill="#ffffff" class="wordmark-text-0" data-fill-palette-color="primary" id="text-0"></path></svg></g></svg></g></svg></g></svg></g><g transform="matrix(1,0,0,1,171.4063361127008,0)"><svg viewBox="0 0 54.68492777459827 54.68492777459827" height="54.68492777459827" width="54.68492777459827"><g><svg xmlns="http://www.w3.org/2000/svg" xmlns:xlink="http://www.w3.org/1999/xlink" version="1.1" x="0" y="0" viewBox="1 1 126 126" style="enable-background:new 0 0 128 128;" xml:space="preserve" height="54.68492777459827" width="54.68492777459827" class="icon-icon-0" data-fill-palette-color="accent" id="icon-0"><g fill="#ea3c12" data-fill-palette-color="accent"><path d="M110.937 52.703c-7.691-4.44-16.653-5.62-25.231-3.321-8.267 2.215-15.218 7.411-19.687 14.668 9.403 17.409 3.288 39.323-13.954 49.278-5.771 3.331-12.084 4.915-18.313 4.915-0.632 0-1.264-0.028-1.894-0.062C41.271 123.777 52.257 127 64 127c31.814 0 58.104-23.586 62.378-54.223C124.154 64.602 118.837 57.265 110.937 52.703z" fill="#ffffff" data-fill-palette-color="accent"></path><path d="M64 1c-8.339 0-16.291 1.635-23.575 4.577C34.448 11.591 30.749 19.872 30.749 29c0 18.01 14.396 32.711 32.285 33.226 4.938-8.026 12.624-13.774 21.766-16.224 9.482-2.54 19.386-1.237 27.887 3.671 6.348 3.666 11.181 8.957 14.295 15.043C126.983 64.476 127 64.24 127 64 127 29.206 98.795 1 64 1z" fill="#ffffff" data-fill-palette-color="accent"></path><path d="M50.314 110.297c15.598-9.006 21.13-28.825 12.632-44.574C43.168 65.162 27.249 48.91 27.249 29c0-7.337 2.17-14.175 5.891-19.918C13.961 19.882 1 40.421 1 64c0 20.167 9.486 38.105 24.228 49.636C33.414 115.793 42.419 114.854 50.314 110.297z" fill="#ffffff" data-fill-palette-color="accent"></path></g></svg></g></svg></g><g></g></svg></g></svg></g></svg></g><defs><mask id="d286a41c-6bdd-41af-b5ba-c9a618387f01"><rect width="640" height="400" fill="white"></rect><rect width="348.05760000000004" height="37.72495783126202" fill="black" y="104.73752108436898" x="23.731199999999973" id="transform-me"></rect></mask></defs></svg><rect width="395.52" height="247.2" fill="none" stroke="none" visibility="hidden"></rect></g></svg></g></svg>